<svg id="图层_1" data-name="图层 1" xmlns="http://www.w3.org/2000/svg" viewBox="0 0 178.84 37.96"><defs><style>.cls-1{fill:#fff;}.cls-2{fill:#d71718;}.cls-3{fill:#1e95d4;}.cls-4{fill:#f4e829;}.cls-5{fill:#262727;}</style></defs><title>logo</title><rect class="cls-1" width="37.96" height="37.96" rx="7.64" ry="7.64"/><path class="cls-2" d="M8.91,8.68,6.25,13.39l-.53,6.55,3.19,6.7,3.86,2.43L16.62,5C15.76,4.11,8.91,8.68,8.91,8.68Z" transform="translate(0 0)"/><path class="cls-3" d="M32.2,14.7c-.77-4.42-5.88-8-5.88-8l-1.2-.14-.54,7-1.47,7.13-3.47,3.13-4.28-1.28s-1.58,6.27-1.07,7.27S22,31.08,26.45,28.67,33,19.12,32.2,14.7Z" transform="translate(0 0)"/><polygon class="cls-4" points="23.63 6.54 22.03 4.98 17.79 4.69 15 23.08 19.25 24.08 22.83 19.23 24.42 9.97 23.63 6.54"/><path class="cls-5" d="M23.17,4.87c-1.89,0-3.67,1.36-4.94,3.39h-.08l.44-3.08H16.06c-.24,1.6-.56,4-1.07,6.67L10.61,34.54h2.85l2-10.78h.08a4.38,4.38,0,0,0,2.29.63c5.74,0,8.82-8.28,8.82-14.14C26.69,7.44,25.94,4.87,23.17,4.87ZM17.8,22.12a3,3,0,0,1-1.82-.7L17.36,14c.67-3.55,2.69-6.6,4.59-6.6,1.5,0,1.86,1.45,1.86,3.29C23.81,13.46,22.22,22.12,17.8,22.12Z" transform="translate(0 0)"/><path class="cls-5" d="M19,3.42a14.2,14.2,0,1,0,14.2,14.2A14.2,14.2,0,0,0,19,3.42ZM19,30A12.36,12.36,0,1,1,31.33,17.62,12.36,12.36,0,0,1,19,30Z" transform="translate(0 0)"/><path class="cls-1" d="M56.21,12.14a6.06,6.06,0,0,1-1.84,4.46,6.33,6.33,0,0,1-8.92,0,6.25,6.25,0,0,1-1.74-4.46,6.27,6.27,0,0,1,1.74-4.46,6.33,6.33,0,0,1,8.92,0A6.08,6.08,0,0,1,56.21,12.14Zm-2.23,0a3.68,3.68,0,0,0-1.26-2.81,4,4,0,0,0-6.78,2.81A4,4,0,0,0,52.72,15,3.68,3.68,0,0,0,54,12.14Z" transform="translate(0 0)"/><path class="cls-1" d="M71,12.14a5.82,5.82,0,0,1-1.55,4.17,5.21,5.21,0,0,1-4,1.65h-3.3v4H60V6.42h5.53a5.21,5.21,0,0,1,4,1.65A5.47,5.47,0,0,1,71,12.14Zm-2.32,0a3.6,3.6,0,0,0-.88-2.52,3,3,0,0,0-2.32-1h-3.3v7.08h3.3a3.18,3.18,0,0,0,2.32-1A3.74,3.74,0,0,0,68.68,12.14Z" transform="translate(0 0)"/><path class="cls-1" d="M85.8,13.21H77.07a2.66,2.66,0,0,0,1.07,1.94,5.83,5.83,0,0,0,2.71.48h4.66V18H80.85q-6.1,0-6.1-5.92A6.52,6.52,0,0,1,76,8a5.18,5.18,0,0,1,4.46-2.13,4.56,4.56,0,0,1,4.26,2.42A6.82,6.82,0,0,1,85.8,12Zm-2.43-2.33C83,9.07,82,8.17,80.47,8.17a3.13,3.13,0,0,0-3.4,2.71Z" transform="translate(0 0)"/><path class="cls-1" d="M100.1,18H97.78V12.43c0-1.55-.29-2.58-.87-3.1a3.78,3.78,0,0,0-2.62-.68H91.77V18H89.54V6.42h4.75a6.35,6.35,0,0,1,4.17,1.16Q100.1,9,100.1,12.43Z" transform="translate(0 0)"/><path class="cls-1" d="M107.72,4H105.4V1.67h2.32Zm0,14H105.4V6.42h2.32Z" transform="translate(0 0)"/><path class="cls-1" d="M123.58,18h-2.33V12.43c0-1.55-.29-2.58-.87-3.1a3.74,3.74,0,0,0-2.61-.68h-2.53V18H113V6.42h4.75a6.3,6.3,0,0,1,4.16,1.16q1.65,1.46,1.65,4.85Z" transform="translate(0 0)"/><path class="cls-1" d="M138.08,14.37c0,2.39-1.48,3.59-4.46,3.59h-5.91V15.63h5.91a3.77,3.77,0,0,0,1.75-.29,1,1,0,0,0,.48-1c0-.84-.61-1.26-1.84-1.26h-2.42q-4.36,0-4.36-3.39A2.94,2.94,0,0,1,128.68,7a5.37,5.37,0,0,1,2.62-.58h6V8.65h-6c-1.23,0-1.84.36-1.84,1.07a.91.91,0,0,0,.77,1,6.07,6.07,0,0,0,1.36.09H134a4.59,4.59,0,0,1,3,1A3.19,3.19,0,0,1,138.08,14.37Z" transform="translate(0 0)"/><path class="cls-1" d="M150.84,8.65h-4V13.5a3,3,0,0,0,.29,1.65,1.24,1.24,0,0,0,1.16.48h2.42V18h-2.42c-2.46,0-3.68-1.49-3.68-4.46V8.65h-2.82V6.42h2.82V1.67h2.23V6.42h4Z" transform="translate(0 0)"/><path class="cls-1" d="M165.73,18h-7.27a4.28,4.28,0,0,1-2.33-.68,3.31,3.31,0,0,1-1.55-3,3.44,3.44,0,0,1,1.55-3,4.28,4.28,0,0,1,2.33-.68h4.94c-.19-1.29-1.19-1.94-3-1.94h-5.63V6.32h5.63a5.4,5.4,0,0,1,4,1.36,5,5,0,0,1,1.36,3.68Zm-2.23-2.23V12.92h-5a2.15,2.15,0,0,0-1.16.29,1.4,1.4,0,0,0,0,2.13,1.79,1.79,0,0,0,1.16.39Z" transform="translate(0 0)"/><path class="cls-1" d="M171.7,18h-2.23V1.67h2.23Z" transform="translate(0 0)"/><path class="cls-1" d="M177.77,18h-2.23V1.67h2.23Z" transform="translate(0 0)"/><path class="cls-1" d="M48.63,32.13c.09.41.18.77.27,1.07-.88.54-1.71,1.1-2.52,1.67a4.88,4.88,0,0,0-.74.71l-.9-.81a1.54,1.54,0,0,0,.53-1.27V29.26h-2v-.93h3.08v5.33Q47.37,33,48.63,32.13Zm-3.16-7.68c.51.41,1.28,1.08,2.32,2l-.9.76c-.86-.87-1.59-1.57-2.2-2.09Zm2.34,10h3.43V24.28h1.19v3.58h3.81v.91H52.43v5.72h4.5v.93H47.81Z" transform="translate(0 0)"/><path class="cls-1" d="M69.92,34.54H68.4L67.32,32H62.91l-1,2.59H60.38l4-9.47h1.46Zm-3-3.66-1.6-3.94a4.24,4.24,0,0,1-.17-.66h0a3.85,3.85,0,0,1-.17.66l-1.59,3.94Z" transform="translate(0 0)"/><path class="cls-1" d="M75.9,31v3.54H74.53V25.07h3a4.22,4.22,0,0,1,2.67.74,2.52,2.52,0,0,1,.94,2.11,2.74,2.74,0,0,1-1.1,2.26,4.18,4.18,0,0,1-2.78.82Zm0-4.86v3.78h1.27a3.05,3.05,0,0,0,1.9-.5A1.74,1.74,0,0,0,79.72,28c0-1.22-.81-1.83-2.42-1.83Z" transform="translate(0 0)"/><path class="cls-1" d="M87.56,31v3.54H86.19V25.07h3a4.19,4.19,0,0,1,2.66.74,2.53,2.53,0,0,1,1,2.11,2.72,2.72,0,0,1-1.11,2.26,4.15,4.15,0,0,1-2.77.82Zm0-4.86v3.78h1.26a3,3,0,0,0,1.9-.5A1.71,1.71,0,0,0,91.37,28c0-1.22-.8-1.83-2.42-1.83Z" transform="translate(0 0)"/><path class="cls-1" d="M96.67,30.67l1.76-.39v-3H96.76v-.86h1.67V24.14h1v2.32H101v.86H99.46v2.73c.55-.14,1.08-.27,1.58-.41a7.29,7.29,0,0,0,.1,1L99.46,31v3.71c0,.83-.36,1.27-1.08,1.31-.46,0-.93,0-1.4,0,0-.33-.09-.67-.16-1,.45,0,.82.05,1.09.05s.52-.16.52-.48V31.29l-1.63.43Zm3.51-2a20.1,20.1,0,0,0,3.09-4.54l1,.3c-.35.65-.71,1.28-1.09,1.88h6.84v.83h-3.4V29h3.21v.83h-3.21v1.89h3.21v.84h-3.21V34.5h3.62v.81h-7.5v.92h-1V28.38l-.78.94A7.8,7.8,0,0,0,100.18,28.64Zm2.59.37h2.84v-1.9h-2.84Zm0,2.72h2.84V29.84h-2.84Zm0,2.77h2.84V32.57h-2.84Zm2.5-9.89.86-.47c.45.51.86,1,1.24,1.51l-1,.53C106.08,25.67,105.7,25.15,105.27,24.61Z" transform="translate(0 0)"/><path class="cls-1" d="M115.7,26h5.46c-.26-.39-.6-.86-1-1.4l1-.51c.44.51.84,1,1.19,1.51l-.77.4h5.61v1H116.92v3a8.25,8.25,0,0,1-2.23,6.12,9.11,9.11,0,0,0-1-.77,7.29,7.29,0,0,0,2-5.47Z" transform="translate(0 0)"/><path class="cls-1" d="M130.9,35.37a13.32,13.32,0,0,0,4-1.15,8.39,8.39,0,0,1-2.12-1.9l.72-.49h-1.06V26.71h4.8c0-.35,0-.73,0-1.13h-5.9v-.86H144v.86h-5.61c0,.4,0,.78,0,1.13h4.54v5.72h-1v-.6H138a4.74,4.74,0,0,1-1.13,2.24,25.65,25.65,0,0,0,7.64.88c-.23.36-.41.69-.56,1a24,24,0,0,1-8-1.19,14.46,14.46,0,0,1-4.44,1.5Q131.25,35.81,130.9,35.37Zm2.61-6.51h3.74c0-.39,0-.83,0-1.32h-3.76Zm3.72.82h-3.72V31h3.61A12.56,12.56,0,0,0,137.23,29.68Zm-1.38,4a3.36,3.36,0,0,0,1.09-1.83h-3.35A6.65,6.65,0,0,0,135.85,33.66ZM138.16,31h3.67V29.68h-3.54C138.26,30.15,138.22,30.59,138.16,31Zm3.67-3.46h-3.5c0,.49,0,.93,0,1.32h3.52Z" transform="translate(0 0)"/><path class="cls-1" d="M148,25.25h6.27c-.2-.35-.39-.65-.57-.92l1-.37c.26.41.51.84.76,1.29h6v.81H148Zm1.85,10.83h-1V30.34h12V34.5q0,1.5-1.59,1.5c-.59,0-1.26,0-2,0-.05-.28-.12-.6-.21-1,.83.06,1.48.09,1.93.09s.83-.25.83-.75V31.12h-9.88Zm.49-9.22h8.88v3h-1v-.39h-6.8v.38h-1Zm7.84.76h-6.8V28.7h6.8Zm-6.48,4.31h6.18v2.56h-5.2V35h-1Zm5.2,1.8v-1h-4.22v1Z" transform="translate(0 0)"/><path class="cls-1" d="M166.37,30.8l.74-.57c.62.53,1.23,1.05,1.82,1.58A12.67,12.67,0,0,0,170,29.89l1,.46a14.13,14.13,0,0,1-1.29,2.14c.66.6,1.3,1.19,1.92,1.79l-.91.7c-.58-.59-1.13-1.14-1.66-1.66a13.06,13.06,0,0,1-3.41,2.81c-.17-.22-.41-.49-.71-.81a10.87,10.87,0,0,0,3.4-2.7C167.63,32,167,31.35,166.37,30.8Zm.81-3.36.9.5c-.74,1-1.52,1.88-2.32,2.78-.23-.17-.5-.36-.81-.56A33.81,33.81,0,0,0,167.18,27.44Zm-1.94-1.31h6.89V27h-6.89Zm2.47-1.65.93-.43c.38.53.73,1.06,1,1.59l-1,.44A15.79,15.79,0,0,0,167.71,24.48Zm2.28,3c.58.53,1.25,1.2,2,2l-.81.61c-.57-.63-1.21-1.32-1.94-2.08Zm3.81-3.38,1.08.16a14.64,14.64,0,0,1-.7,2.21h4.4v.84h-.94a12.22,12.22,0,0,1-1.73,5.59,9.22,9.22,0,0,0,2.93,2.32c-.29.36-.54.68-.74,1a10.82,10.82,0,0,1-2.89-2.41,13.27,13.27,0,0,1-3.13,2.51,6.34,6.34,0,0,0-.78-.77,13.3,13.3,0,0,0,3.25-2.65,10.35,10.35,0,0,1-1.48-4.25,11.4,11.4,0,0,1-.7,1q-.28-.36-.69-.78A10.58,10.58,0,0,0,173.8,24.1Zm2.75,3.21h-2.66a10.66,10.66,0,0,0,1.34,4.61A9.87,9.87,0,0,0,176.55,27.31Z" transform="translate(0 0)"/></svg>